# xmcd CD database file
#
# Track frame offsets:
#	150
#	24782
#	50127
#	70970
#	96925
#	120967
#	143557
#	160247
#
# Disc length: 2405 seconds
#
# Revision: 0
# Processed by: cddbd v1.5.2PL0 Copyright (c) Steve Scherf et al.
# Submitted via: CDex 2.08
#
DISCID=62096308
DTITLE=Azucar - Romance de Chiquillos
DYEAR=2002
DGENRE=Salsa
TTITLE0=Dentro de ti
TTITLE1=Romance de Chiquillos
TTITLE2=Havana travel
TTITLE3=Buscando la felicidad
TTITLE4=La vela al mar
TTITLE5=El basilio
TTITLE6=Algo mas
TTITLE7=Como se mueve (la cintura)
EXTD=YEAR: 2002
EXTT0=
EXTT1=
EXTT2=
EXTT3=
EXTT4=
EXTT5=
EXTT6=
EXTT7=
PLAYORDER=
